<svg width="29" height="28" viewBox="0 0 29 28" fill="none" xmlns="http://www.w3.org/2000/svg">
<path d="M8.69284 14C7.11784 14.0521 5.82964 14.7188 4.82826 16H2.87409C2.07687 16 1.40603 15.7891 0.861589 15.3672C0.317144 14.9453 0.0449219 14.3281 0.0449219 13.5156C0.0449219 9.83854 0.6477 8 1.85326 8C1.91159 8 2.12305 8.10938 2.48763 8.32812C2.85221 8.54688 3.32617 8.76823 3.90951 8.99219C4.49284 9.21615 5.07131 9.32812 5.64492 9.32812C6.29631 9.32812 6.94284 9.20833 7.58451 8.96875C7.53589 9.35417 7.51159 9.69792 7.51159 10C7.51159 11.4479 7.90534 12.7812 8.69284 14ZM24.3116 23.9531C24.3116 25.2031 23.9567 26.1901 23.247 26.9141C22.5373 27.638 21.5942 28 20.4178 28H7.67201C6.49562 28 5.55256 27.638 4.84284 26.9141C4.13312 26.1901 3.77826 25.2031 3.77826 23.9531C3.77826 23.401 3.79527 22.862 3.8293 22.3359C3.86332 21.8099 3.93138 21.2422 4.03346 20.6328C4.13555 20.0234 4.26437 19.4583 4.41992 18.9375C4.57548 18.4167 4.78451 17.9089 5.04701 17.4141C5.30951 16.9193 5.61089 16.4974 5.95117 16.1484C6.29145 15.7995 6.70707 15.5208 7.19805 15.3125C7.68902 15.1042 8.23103 15 8.82409 15C8.92131 15 9.13034 15.112 9.45117 15.3359C9.77201 15.5599 10.1269 15.8099 10.5158 16.0859C10.9046 16.362 11.4248 16.612 12.0762 16.8359C12.7276 17.0599 13.3838 17.1719 14.0449 17.1719C14.706 17.1719 15.3623 17.0599 16.0137 16.8359C16.6651 16.612 17.1852 16.362 17.5741 16.0859C17.963 15.8099 18.3178 15.5599 18.6387 15.3359C18.9595 15.112 19.1685 15 19.2658 15C19.8588 15 20.4008 15.1042 20.8918 15.3125C21.3828 15.5208 21.7984 15.7995 22.1387 16.1484C22.479 16.4974 22.7803 16.9193 23.0428 17.4141C23.3053 17.9089 23.5144 18.4167 23.6699 18.9375C23.8255 19.4583 23.9543 20.0234 24.0564 20.6328C24.1585 21.2422 24.2265 21.8099 24.2605 22.3359C24.2946 22.862 24.3116 23.401 24.3116 23.9531ZM9.37825 4C9.37825 5.10417 9.01367 6.04688 8.2845 6.82812C7.55534 7.60938 6.67548 8 5.64492 8C4.61437 8 3.73451 7.60938 3.00534 6.82812C2.27617 6.04688 1.91159 5.10417 1.91159 4C1.91159 2.89583 2.27617 1.95312 3.00534 1.17188C3.73451 0.390625 4.61437 0 5.64492 0C6.67548 0 7.55534 0.390625 8.2845 1.17188C9.01367 1.95312 9.37825 2.89583 9.37825 4ZM19.6449 10C19.6449 11.6562 19.098 13.0703 18.0043 14.2422C16.9105 15.4141 15.5908 16 14.0449 16C12.4991 16 11.1793 15.4141 10.0855 14.2422C8.9918 13.0703 8.44492 11.6562 8.44492 10C8.44492 8.34375 8.9918 6.92969 10.0855 5.75781C11.1793 4.58594 12.4991 4 14.0449 4C15.5908 4 16.9105 4.58594 18.0043 5.75781C19.098 6.92969 19.6449 8.34375 19.6449 10ZM28.0449 13.5156C28.0449 14.3281 27.7727 14.9453 27.2283 15.3672C26.6838 15.7891 26.013 16 25.2158 16H23.2616C22.2602 14.7188 20.972 14.0521 19.397 14C20.1845 12.7812 20.5783 11.4479 20.5783 10C20.5783 9.69792 20.5539 9.35417 20.5053 8.96875C21.147 9.20833 21.7935 9.32812 22.4449 9.32812C23.0185 9.32812 23.597 9.21615 24.1803 8.99219C24.7637 8.76823 25.2376 8.54688 25.6022 8.32812C25.9668 8.10938 26.1783 8 26.2366 8C27.4421 8 28.0449 9.83854 28.0449 13.5156ZM26.1783 4C26.1783 5.10417 25.8137 6.04688 25.0845 6.82812C24.3553 7.60938 23.4755 8 22.4449 8C21.4144 8 20.5345 7.60938 19.8053 6.82812C19.0762 6.04688 18.7116 5.10417 18.7116 4C18.7116 2.89583 19.0762 1.95312 19.8053 1.17188C20.5345 0.390625 21.4144 0 22.4449 0C23.4755 0 24.3553 0.390625 25.0845 1.17188C25.8137 1.95312 26.1783 2.89583 26.1783 4Z" fill="#259240"/>
</svg>
