<svg width="16" height="16" viewBox="0 0 16 16" fill="none" xmlns="http://www.w3.org/2000/svg">
<g clip-path="url(#clip0_345_10389)">
<path d="M5.33158 7.17341H4.94491C4.41725 7.15434 3.8913 7.24392 3.39969 7.43658C2.90809 7.62925 2.46133 7.92089 2.08714 8.29341L1.98047 8.41786V12.0979H3.7938V10.009L4.03825 9.73341L4.14936 9.60452C4.72799 9.01008 5.44837 8.57265 6.24269 8.33341C5.84514 8.03066 5.53152 7.63137 5.33158 7.17341Z" fill="#274373"/>
<path d="M13.9303 8.28023C13.5561 7.90771 13.1094 7.61607 12.6178 7.4234C12.1262 7.23074 11.6002 7.14116 11.0726 7.16023C10.9107 7.16109 10.749 7.16999 10.5881 7.1869C10.3844 7.61654 10.0794 7.99023 9.69922 8.27578C10.5473 8.51018 11.3155 8.97111 11.9214 9.60912L12.0326 9.73356L12.2726 10.0091V12.1025H14.0237V8.40467L13.9303 8.28023Z" fill="#274373"/>
<path d="M4.93198 6.30674H5.06975C5.00574 5.75707 5.10218 5.20062 5.34746 4.70456C5.59273 4.2085 5.97633 3.79403 6.45198 3.51119C6.27956 3.24779 6.04169 3.03368 5.76167 2.88983C5.48164 2.74598 5.16906 2.67732 4.85452 2.69058C4.53999 2.70383 4.23429 2.79855 3.96736 2.96544C3.70043 3.13234 3.48142 3.3657 3.33178 3.64268C3.18213 3.91965 3.10699 4.23074 3.11369 4.54548C3.1204 4.86022 3.20874 5.16782 3.37004 5.43817C3.53135 5.70851 3.76011 5.93233 4.03391 6.0877C4.30771 6.24308 4.61716 6.32468 4.93198 6.32452V6.30674Z" fill="#274373"/>
<path d="M10.8585 5.97352C10.8636 6.07568 10.8636 6.17803 10.8585 6.28019C10.9438 6.29385 11.03 6.30127 11.1163 6.30241H11.2007C11.5142 6.2857 11.8179 6.18811 12.0825 6.01916C12.347 5.8502 12.5632 5.61563 12.7102 5.33828C12.8571 5.06094 12.9298 4.75027 12.921 4.43651C12.9123 4.12276 12.8224 3.81662 12.6602 3.5479C12.498 3.27918 12.269 3.05703 11.9955 2.90309C11.722 2.74915 11.4133 2.66865 11.0994 2.66944C10.7855 2.67023 10.4772 2.75228 10.2044 2.9076C9.93169 3.06291 9.7038 3.28621 9.54297 3.55574C9.94523 3.81838 10.276 4.17677 10.5056 4.59875C10.7352 5.02074 10.8565 5.49312 10.8585 5.97352Z" fill="#274373"/>
<path d="M7.9437 7.96454C9.0409 7.96454 9.93036 7.07508 9.93036 5.97788C9.93036 4.88067 9.0409 3.99121 7.9437 3.99121C6.84649 3.99121 5.95703 4.88067 5.95703 5.97788C5.95703 7.07508 6.84649 7.96454 7.9437 7.96454Z" fill="#274373"/>
<path d="M8.04846 9.02205C7.46806 8.99887 6.88896 9.09322 6.34594 9.29943C5.80292 9.50564 5.30717 9.81946 4.88845 10.2221L4.77734 10.3465V13.1598C4.77908 13.2515 4.79885 13.3419 4.83553 13.4259C4.87221 13.5099 4.92507 13.5858 4.99111 13.6494C5.05715 13.7129 5.13506 13.7629 5.22039 13.7963C5.30573 13.8297 5.39682 13.846 5.48846 13.8443H10.5951C10.6868 13.846 10.7778 13.8297 10.8632 13.7963C10.9485 13.7629 11.0264 13.7129 11.0925 13.6494C11.1585 13.5858 11.2114 13.5099 11.248 13.4259C11.2847 13.3419 11.3045 13.2515 11.3062 13.1598V10.3554L11.1996 10.2221C10.7837 9.81801 10.2897 9.50317 9.74786 9.29683C9.20601 9.09048 8.62772 8.99698 8.04846 9.02205Z" fill="#274373"/>
</g>
<defs>
<clipPath id="clip0_345_10389">
<rect width="16" height="16" fill="white"/>
</clipPath>
</defs>
</svg>
