<svg width="14" height="14" viewBox="0 0 14 14" fill="none" xmlns="http://www.w3.org/2000/svg">
<path d="M9.33203 5.99984C10.9987 5.99984 12.332 7.33317 12.332 8.99984C12.332 9.5865 12.1654 10.1398 11.872 10.5998L13.9254 12.6665L12.9987 13.5932L10.9187 11.5465C10.4587 11.8332 9.91203 11.9998 9.33203 11.9998C7.66536 11.9998 6.33203 10.6665 6.33203 8.99984C6.33203 7.33317 7.66536 5.99984 9.33203 5.99984ZM9.33203 7.33317C8.89 7.33317 8.46608 7.50877 8.15352 7.82133C7.84096 8.13389 7.66536 8.55781 7.66536 8.99984C7.66536 9.44186 7.84096 9.86579 8.15352 10.1783C8.46608 10.4909 8.89 10.6665 9.33203 10.6665C9.77406 10.6665 10.198 10.4909 10.5105 10.1783C10.8231 9.86579 10.9987 9.44186 10.9987 8.99984C10.9987 8.55781 10.8231 8.13389 10.5105 7.82133C10.198 7.50877 9.77406 7.33317 9.33203 7.33317ZM5.66536 0.666504C6.37261 0.666504 7.05089 0.947455 7.55098 1.44755C8.05108 1.94765 8.33203 2.62593 8.33203 3.33317C8.33203 3.93984 8.12536 4.49984 7.78537 4.95317C7.21203 5.1665 6.6987 5.5065 6.27203 5.93317L5.66536 5.99984C4.95812 5.99984 4.27984 5.71889 3.77975 5.21879C3.27965 4.71869 2.9987 4.04041 2.9987 3.33317C2.9987 2.62593 3.27965 1.94765 3.77975 1.44755C4.27984 0.947455 4.95812 0.666504 5.66536 0.666504ZM0.332031 11.3332V9.99984C0.332031 8.5865 2.5387 7.4265 5.33203 7.33317C5.1187 7.85317 4.9987 8.41317 4.9987 8.99984C4.9987 9.85984 5.25203 10.6665 5.66536 11.3332H0.332031Z" fill="#274373"/>
</svg>
